Coordinates
version=1
nRows=14
nColumns=40
inDegrees=yes

Units are S.I. units (second, meters, Newtons, ...)
Angles are in degrees.

endheader
time	pelvis_tilt	pelvis_list	pelvis_rotation	pelvis_tx	pelvis_ty	pelvis_tz	hip_flexion_r	hip_adduction_r	hip_rotation_r	knee_angle_r	knee_angle_r_beta	ankle_angle_r	subtalar_angle_r	mtp_angle_r	hip_flexion_l	hip_adduction_l	hip_rotation_l	knee_angle_l	knee_angle_l_beta	ankle_angle_l	subtalar_angle_l	mtp_angle_l	lumbar_extension	lumbar_bending	lumbar_rotation	arm_flex_r	arm_add_r	arm_rot_r	elbow_flex_r	pro_sup_r	wrist_flex_r	wrist_dev_r	arm_flex_l	arm_add_l	arm_rot_l	elbow_flex_l	pro_sup_l	wrist_flex_l	wrist_dev_l
     45.03750000	    -10.61571794	     -7.45939931	     -3.86593033	      0.96452302	      0.91188316	      0.47555073	      2.70653058	      1.83349507	    -11.94192452	     21.36006559	     21.36006559	     15.03975598	      9.15012151	    -10.77602093	     34.81989219	    -10.29200946	      1.12876012	     31.72972884	     31.72972884	     10.22809954	    -16.00662878	     11.59026358	    -10.34400481	      6.12172635	      5.56666732	     27.91214709	    -14.05516013	      2.93558308	     92.05638047	     44.21499610	      0.00000000	      0.00000000	    -11.97632411	     -7.83308919	      9.11477978	     29.39146634	     43.92415144	      0.00000000	      0.00000000
     45.04942857	    -10.65660202	     -7.25351087	     -3.86989081	      0.96441263	      0.91351816	      0.47255913	      3.88415300	      0.95436960	    -11.76553170	     24.26077411	     24.26077411	     14.05062626	      8.36905713	    -11.92430666	     33.93202075	     -9.86577224	      0.89168666	     31.16878028	     31.16878028	     10.58318217	    -15.99576883	     11.53185783	    -10.27994877	      6.02263052	      5.55804323	     25.97517519	    -14.45799826	      3.07736984	     90.72803891	     44.25837769	      0.00000000	      0.00000000	    -10.72922176	     -8.01256354	      8.72341822	     30.15313891	     44.02433429	      0.00000000	      0.00000000
     45.06135714	    -10.69054931	     -7.11952224	     -3.83685884	      0.96418796	      0.91519554	      0.46968921	      5.03228459	      0.23984415	    -11.40077799	     26.83525105	     26.83525105	     11.12667024	      6.55070922	    -17.53278714	     33.01628215	     -9.47377832	      0.79449936	     30.51786384	     30.51786384	     10.76156935	    -16.12919376	     11.32831394	    -10.28670575	      5.95529036	      5.41412884	     24.02037785	    -14.27821101	      2.18340018	     88.84652140	     44.40576616	      0.00000000	      0.00000000	     -9.95777842	     -8.07558299	      6.27255535	     32.33056799	     44.50516661	      0.00000000	      0.00000000
     45.07328571	    -10.74781890	     -6.97178665	     -3.80556141	      0.96373254	      0.91681513	      0.46677548	      6.65855607	     -0.62542629	    -11.13770430	     30.33635230	     30.33635230	      9.48232385	      5.43558003	    -18.59876845	     32.11648864	     -9.10199182	      0.57382408	     29.82341452	     29.82341452	     11.04603849	    -16.01097294	     11.25968095	    -10.27002454	      5.95594575	      5.44726318	     22.02648237	    -14.75751180	      2.33666972	     87.16562249	     44.45751833	      0.00000000	      0.00000000	     -8.58202432	     -8.26329317	      5.69314291	     33.30843307	     44.62193461	      0.00000000	      0.00000000
     45.08521429	    -10.72736476	     -6.78409175	     -3.71901403	      0.96314588	      0.91838996	      0.46392816	      8.42281179	     -1.52200391	    -10.77399717	     34.10889488	     34.10889488	      7.48256120	      3.99441240	    -19.54317411	     31.17638105	     -8.68540507	      0.33220601	     29.16936971	     29.16936971	     11.31189157	    -15.81126381	     11.17000974	    -10.35747353	      5.87661008	      5.45699314	     20.00538074	    -15.04376137	      2.30736861	     85.29441276	     44.51733839	      0.00000000	      0.00000000	     -7.13832706	     -8.51462944	      5.10241775	     34.54729186	     44.73224512	      0.00000000	      0.00000000
     45.09714286	    -10.78217620	     -6.80881174	     -3.66396692	      0.96241825	      0.91979771	      0.46143077	     10.28034083	     -1.92981302	     -9.95229488	     37.55857587	     37.55857587	      3.97855756	      0.75412793	    -23.11415470	     30.30536930	     -8.49056223	      0.28249435	     28.45828931	     28.45828931	     11.36737694	    -15.83150917	     10.58172466	    -10.34815267	      5.98395631	      5.06982085	     18.71197671	    -14.22286075	      0.75599325	     81.12533376	     44.73137096	      0.00000000	      0.00000000	     -6.89660087	     -8.61456512	      2.06423419	     38.45873431	     45.18195039	      0.00000000	      0.00000000
     45.10907143	    -10.78855337	     -6.59793194	     -3.58030816	      0.96148506	      0.92094281	      0.45869953	     12.46046325	     -2.83529708	     -9.57555815	     41.70285516	     41.70285516	      1.54524857	     -0.87149809	    -23.11254846	     29.46969653	     -8.08070038	     -0.00810923	     27.89853844	     27.89853844	     11.67295247	    -15.55790569	     10.43000928	    -10.43668318	      5.92188419	      5.08981148	     16.71980294	    -14.65354412	      0.93391729	     79.17120047	     44.78585417	      0.00000000	      0.00000000	     -5.29564597	     -8.86252560	      1.45893957	     39.75067744	     45.28553103	      0.00000000	      0.00000000
     45.12100000	    -10.78816847	     -6.63688851	     -3.52817800	      0.96048647	      0.92198907	      0.45646430	     14.68622575	     -3.13334813	     -8.72899233	     45.66924633	     45.66924633	     -1.17424289	     -3.77374656	    -22.57074168	     28.63793804	     -7.96660772	     -0.17623041	     27.34064299	     27.34064299	     11.80315846	    -15.33522576	      9.65831123	    -10.47716912	      6.04946170	      4.52567361	     15.95546409	    -13.82669303	     -0.16255143	     73.96443518	     45.01247254	      0.00000000	      0.00000000	     -5.04769082	     -9.00258066	     -1.12279011	     43.91487070	     45.64148580	      0.00000000	      0.00000000
     45.13292857	    -10.78675190	     -6.51434193	     -3.48394275	      0.95935547	      0.92274189	      0.45414013	     17.04227456	     -3.67278579	     -8.08173127	     49.67749364	     49.67749364	     -3.68470880	     -6.06133456	    -21.45013268	     27.86795801	     -7.67885015	     -0.38268646	     26.90383937	     26.90383937	     12.16825125	    -15.08862423	      9.39996236	    -10.54928056	      6.08990655	      4.79670550	     14.03347342	    -14.36997170	     -0.08162967	     71.38697007	     45.09133652	      0.00000000	      0.00000000	     -3.33247313	     -9.19668166	     -1.77658871	     45.70168591	     45.75043261	      0.00000000	      0.00000000
     45.14485714	    -10.72034684	     -6.30612655	     -3.46489493	      0.95813369	      0.92335031	      0.45208652	     19.40128902	     -4.21897005	     -7.45706547	     53.56679209	     53.56679209	     -6.05765065	     -8.54362574	    -19.90868837	     27.09859072	     -7.36749954	     -0.77091010	     26.58542748	     26.58542748	     12.51124950	    -14.76553740	      9.10876517	    -10.71760082	      5.99896648	      4.92806651	     12.24772301	    -14.61200456	     -0.20874107	     68.70002881	     45.18053714	      0.00000000	      0.00000000	     -1.65555554	     -9.55703448	     -2.28460472	     47.58620054	     45.84073460	      0.00000000	      0.00000000
     45.15678571	    -10.59068570	     -6.42484794	     -3.40523600	      0.95694322	      0.92394011	      0.45040115	     21.72466928	     -4.27533794	     -6.91022180	     57.41789751	     57.41789751	     -6.74268645	    -10.04431247	    -14.07156440	     26.29697322	     -7.44725013	     -1.11415768	     26.31508785	     26.31508785	     12.76908933	    -14.15836886	      7.91326659	    -10.85539605	      6.15462024	      3.93546030	     12.77698352	    -13.15334514	     -1.95494906	     60.93780867	     45.51189048	      0.00000000	      0.00000000	     -1.80055010	    -10.25805555	     -3.29082713	     52.92733779	     46.03065052	      0.00000000	      0.00000000
     45.16871429	    -10.46310829	     -6.39786474	     -3.37686598	      0.95567542	      0.92434008	      0.44877305	     23.93921364	     -4.41952410	     -6.39791595	     60.73377910	     60.73377910	     -8.24255176	    -12.31816570	    -11.71248176	     25.53136226	     -7.33107185	     -1.34528845	     26.11666165	     26.11666165	     13.18675593	    -13.85755706	      7.50699915	    -11.06156672	      6.24291907	      4.30563866	     11.08583852	    -13.67362802	     -1.82705555	     57.92148244	     45.60144515	      0.00000000	      0.00000000	      0.08313121	    -10.48888550	     -3.75910442	     55.09798215	     46.12995605	      0.00000000	      0.00000000
     45.18064286	    -10.37637420	     -6.31629683	     -3.32421734	      0.95436638	      0.92456581	      0.44731811	     26.28250257	     -4.63168326	     -6.01709401	     64.03503174	     64.03503174	     -8.08490262	    -13.41470092	     -6.16015416	     24.78693092	     -7.23193520	     -1.81561531	     25.84686312	     25.84686312	     13.48830801	    -13.17582221	      6.59569454	    -11.14348717	      6.24078102	      3.52084779	     11.14443380	    -12.99736092	     -2.46577195	     51.80444007	     45.82957074	      0.00000000	      0.00000000	      0.82474403	    -11.41523716	     -3.73130138	     58.70343539	     46.23310784	      0.00000000	      0.00000000
     45.19257143	    -10.16416341	     -6.27256825	     -3.31295042	      0.95309288	      0.92482589	      0.44605587	     28.26386650	     -4.74478453	     -5.72495870	     66.67207056	     66.67207056	     -8.78627725	    -15.18517901	     -4.55774342	     23.98986412	     -7.13376935	     -2.06657459	     25.77328924	     25.77328924	     13.97027549	    -12.83585507	      6.19007664	    -11.42578594	      6.28936682	      3.93352096	      9.49445726	    -13.42195920	     -2.43506919	     49.01300960	     45.91239593	      0.00000000	      0.00000000	      2.84509447	    -11.68856997	     -4.02035900	     60.78798186	     46.31801239	      0.00000000	      0.00000000
